<?xml version="1.0" encoding="utf-8"?>
<!-- Generator: Adobe Illustrator 25.0.0, SVG Export Plug-In . SVG Version: 6.00 Build 0)  -->
<svg version="1.1" id="Capa_1" xmlns="http://www.w3.org/2000/svg" xmlns:xlink="http://www.w3.org/1999/xlink" x="0px" y="0px"
	 viewBox="0 0 512 791.1" style="enable-background:new 0 0 512 791.1;" xml:space="preserve">
<style type="text/css">
	.st0{fill:url(#SVGID_1_);}
</style>
<linearGradient id="SVGID_1_" gradientUnits="userSpaceOnUse" x1="-93.8721" y1="740.4235" x2="-202.6321" y2="849.1824" gradientTransform="matrix(4 0 0 -4 849 3670.75)">
	<stop  offset="0" style="stop-color:#FF9B00"/>
	<stop  offset="1" style="stop-color:#FF5700"/>
</linearGradient>
<path class="st0" d="M422.7,491.5c68.8-23.3,105.6-98,82.3-166.7c-23.3-68.8-98-105.6-166.7-82.3c-38.7,13.1-69.2,43.5-82.3,82.3
	c-23.3-68.8-98-105.6-166.7-82.3S-16.4,340.4,7,409.2c13.1,38.7,43.5,69.1,82.2,82.3c-19,6.4-36.3,17.2-50.5,31.3
	c-2.7,2.8-2.6,7.2,0.1,9.9c2.7,2.6,7,2.6,9.7,0c45.9-45.6,120.1-45.3,165.6,0.6s45.3,120.1-0.6,165.6S93.6,744.3,48,698.4
	c-34.1-34.3-43.5-86.1-23.8-130.2c1.7-3.5,0.2-7.7-3.3-9.3s-7.7-0.2-9.3,3.3c0,0.1-0.1,0.2-0.1,0.3c-29.6,66.3,0.2,144.1,66.5,173.7
	s144.1-0.2,173.7-66.5c1.7-3.7,3.1-7.5,4.4-11.3c23.3,68.8,98,105.6,166.7,82.3s105.6-98,82.3-166.7
	C491.9,535.1,461.5,504.7,422.7,491.5z M380.5,249.5c64.9,0,117.5,52.6,117.5,117.5s-52.6,117.5-117.5,117.5S263,431.9,263,367
	c0,0,0,0,0,0C263.1,302.2,315.6,249.6,380.5,249.5z M14,367c0-64.9,52.6-117.5,117.5-117.5S249,302.1,249,367
	s-52.6,117.5-117.5,117.5C66.6,484.4,14.1,431.9,14,367z M173.7,491.5c38.7-13.2,69.1-43.6,82.3-82.3c13.2,38.7,43.6,69.1,82.3,82.3
	c-38.7,13.2-69.1,43.6-82.3,82.3C242.8,535.1,212.4,504.7,173.7,491.5z M380.5,733.5C315.6,733.5,263,680.9,263,616
	s52.6-117.5,117.5-117.5S498,551.1,498,616C497.9,680.9,445.4,733.5,380.5,733.5z M231,367c0-55-44.5-99.5-99.5-99.5
	S32,312.1,32,367s44.5,99.5,99.5,99.5C186.4,466.5,230.9,421.9,231,367z M46,367c0-47.2,38.3-85.5,85.5-85.5S217,319.8,217,367
	s-38.3,85.5-85.5,85.5C84.3,452.5,46.1,414.2,46,367z M300.4,426c-2.8-3.7-5.3-7.7-7.5-11.8c-1.8-3.4-0.5-7.7,2.9-9.5
	c3.4-1.8,7.5-0.5,9.4,2.8c1.9,3.5,4,6.9,6.4,10.1c2.3,3.1,1.6,7.5-1.5,9.8S302.7,429.1,300.4,426L300.4,426z M288,374
	c-3.9,0-7-3.1-7-7c0-55,44.6-99.5,99.5-99.5c55,0,99.5,44.6,99.5,99.5c0,55-44.6,99.5-99.5,99.5c-13.7,0-27.2-2.8-39.8-8.3
	c-3.6-1.4-5.3-5.5-3.9-9.1c1.4-3.6,5.5-5.3,9.1-3.9c0.1,0.1,0.3,0.1,0.4,0.2c10.8,4.7,22.4,7.2,34.2,7.1c47.2,0,85.5-38.3,85.5-85.5
	s-38.3-85.5-85.5-85.5c-47.2,0-85.5,38.3-85.5,85.5c0,0,0,0,0,0C295,370.9,291.9,374,288,374z M131.5,715.5
	c55,0,99.5-44.5,99.5-99.5s-44.5-99.5-99.5-99.5S32,561.1,32,616l0,0C32.1,671,76.6,715.5,131.5,715.5z M131.5,530.5
	c47.2,0,85.5,38.3,85.5,85.5s-38.3,85.5-85.5,85.5S46,663.2,46,616C46.1,568.8,84.3,530.6,131.5,530.5z M380.5,516.5
	c-55,0-99.5,44.5-99.5,99.5s44.5,99.5,99.5,99.5S480,671,480,616l0,0C479.9,561.1,435.4,516.6,380.5,516.5z M380.5,701.5
	c-47.2,0-85.5-38.3-85.5-85.5s38.3-85.5,85.5-85.5S466,568.8,466,616C465.9,663.2,427.7,701.5,380.5,701.5z M169.5,412h-60
	c-12.7,0-23-10.3-23-23v-44c0-12.7,10.3-23,23-23h60c3.9,0,7,3.1,7,7c0,3.9-3.1,7-7,7h-60c-5,0-9,4-9,9v44c0,5,4,9,9,9h60
	c3.9,0,7,3.1,7,7S173.4,412,169.5,412z M411.5,405v-62.1l-25.8,28.8c-2.8,2.9-7.3,3-10.2,0.2c-0.1-0.1-0.1-0.1-0.2-0.2l-25.8-28.8
	V405c0,3.9-3.1,7-7,7s-7-3.1-7-7v-76c0-3.9,3.1-7,7-7h4c2,0,3.9,0.9,5.2,2.3l28.8,32.2l28.8-32.2c1.3-1.5,3.2-2.3,5.2-2.3h4
	c3.9,0,7,3.1,7,7v76c0,3.9-3.1,7-7,7S411.4,408.9,411.5,405L411.5,405z M88.6,583c-2.7-2.7-2.7-7.2,0-9.9c2.7-2.7,7.2-2.7,9.9,0l0,0
	l33,33l33-33c2.7-2.7,7.2-2.7,9.9,0c2.7,2.7,2.7,7.2,0,9.9l-35.9,35.9V654c0,3.9-3.1,7-7,7c-3.9,0-7-3.1-7-7l0,0v-35.1L88.6,583z
	 M422.6,583.7L378.8,616l43.9,32.4c3.1,2.3,3.9,6.6,1.6,9.8s-6.6,3.9-9.8,1.6c0,0-0.1-0.1-0.1-0.1L364.7,623h-7.2v31
	c0,3.9-3.1,7-7,7s-7-3.1-7-7l0,0v-76c0-3.9,3.1-7,7-7s7,3.1,7,7v31h7.2l49.6-36.6c3.1-2.3,7.5-1.7,9.8,1.3s1.7,7.5-1.3,9.8
	C422.7,583.6,422.7,583.6,422.6,583.7L422.6,583.7z"/>
</svg>
