<?xml version="1.0" encoding="utf-8"?>
<!-- Generator: Adobe Illustrator 25.0.0, SVG Export Plug-In . SVG Version: 6.00 Build 0)  -->
<svg version="1.1" id="_x33_0" xmlns="http://www.w3.org/2000/svg" xmlns:xlink="http://www.w3.org/1999/xlink" x="0px" y="0px"
	 viewBox="0 0 512 655" style="enable-background:new 0 0 512 655;" xml:space="preserve">
<style type="text/css">
	.st0{fill:url(#SVGID_1_);}
</style>
<linearGradient id="SVGID_1_" gradientUnits="userSpaceOnUse" x1="-215.625" y1="1048.9984" x2="-215.625" y2="1110.9984" gradientTransform="matrix(8 0 0 -8 1981 9033)">
	<stop  offset="0" style="stop-color:#FF9B00"/>
	<stop  offset="1" style="stop-color:#FF5700"/>
</linearGradient>
<path class="st0" d="M392,521c13.2,0,24-10.8,24-24s-10.8-24-24-24s-24,10.8-24,24S378.8,521,392,521z M392,489c4.4,0,8,3.6,8,8
	s-3.6,8-8,8s-8-3.6-8-8S387.6,489,392,489z M485.1,255.2c12.2-12.2,18.9-28.4,18.9-45.7c0-35.6-29-64.6-64.6-64.6
	c-17.2,0-33.5,6.7-45.7,18.9l-92.5,92.5c-12-4-24.6-6.4-37.7-7c-11-19.3-31.8-32.4-55.6-32.4c-6.1,0-12,0.9-17.6,2.5
	c-13.8-26-40.6-42.5-70.4-42.5c-44.1,0-80,35.9-80,80c0,6.1,0.8,12.2,2.1,18.1C22.4,281,8,299.4,8,321c0,26.5,21.5,48,48,48h58
	c-1.3,7.9-2,15.9-2,24c0,17.6,3.3,31.9,8.5,44.2l-71.4,71.4L9.4,611.8c-1,2.5-1.4,5.1-1.4,7.7c0,11.9,9.6,21.5,21.5,21.5
	c2.6,0,5.2-0.5,7.7-1.4l103.2-39.7l52.2-52.2c-0.4,1.7-0.6,3.5-0.6,5.3c0,6.2,2.4,11.7,6.2,16c-3.8,4.3-6.2,9.8-6.2,16
	c0,11.1,7.6,20.4,17.9,23.1C216.7,627.7,235,641,256,641s39.3-13.4,46.1-32.9c10.3-2.7,17.9-12,17.9-23.1c0-0.6-0.1-1.2-0.2-1.7
	l9.9,9.9l11.7-11.6c4.4-4.4,11-5.7,17.1-3.2c5.7,2.4,9.5,7.9,9.5,14.2V609h48v-16.4c0-6.2,3.7-11.8,9.8-14.3
	c5.8-2.4,12.4-1.1,16.8,3.3l11.6,11.6l34-34l-11.6-11.6c-4.4-4.4-5.7-11-3.1-17.1c2.4-5.7,7.9-9.5,14.2-9.5H504v-48h-16.4
	c-6.2,0-11.8-3.7-14.3-9.8c-2.4-5.8-1.1-12.4,3.3-16.8l11.6-11.6l-34-34l-11.7,11.6c-4.4,4.4-11,5.7-17.1,3.1
	c-5.7-2.4-9.4-7.9-9.4-14.1V385h-16.4c-0.7-12.9-3.1-25.4-7.1-37.2L485.1,255.2z M363,297.3l37-37l28.7,28.7L386,331.7
	C380,319.2,372.2,307.6,363,297.3z M371.3,209l12.7-12.7l68.7,68.7L440,277.7L371.3,209z M439.4,161c26.8,0,48.6,21.8,48.6,48.6
	c0,13-5,25.2-14.2,34.3l-9.8,9.8L395.3,185l9.8-9.8C414.3,166.1,426.5,161,439.4,161z M360,220.3l28.7,28.7l-37,37
	c-10.3-9.2-21.8-17-34.4-23L360,220.3z M384,393c0,41.6-21,62.1-43.2,83.7c-15.3,14.9-31,30.3-40.1,52.8c-1.5-0.3-3.1-0.5-4.7-0.5
	h-32v-40c0-13.2-10.8-24-24-24h-16c-4.4,0-8-3.6-8-8s3.6-8,8-8h80c13.2,0,24-10.8,24-24s-10.8-24-24-24h-64c-4.4,0-8-3.6-8-8v-24h40
	c22.1,0,40-17.9,40-40s-17.9-40-40-40c-0.2,0-0.4,0.1-0.7,0.1c0.3-2.7,0.7-5.3,0.7-8.1c0-5.2-0.7-10.3-1.9-15.2
	C333.9,272.9,384,327.7,384,393z M353.4,486.8c8.7-8.5,17.5-17.2,25-27.3c4.4-1.6,8.9-2.5,13.6-2.5c22.1,0,40,17.9,40,40
	s-17.9,40-40,40s-40-17.9-40-40C352,493.5,352.5,490.1,353.4,486.8L353.4,486.8z M208,553c0-4.4,3.6-8,8-8h80c4.4,0,8,3.6,8,8
	c0,4.4-3.6,8-8,8h-80C211.6,561,208,557.4,208,553L208,553z M107.3,553l58.8-58.8c9.8,9.8,19,19.6,25.7,31.7L136,581.7L107.3,553z
	 M24,321c0-17.6,14.4-32,32-32s32,14.4,32,32h16c0-25.8-20.4-46.8-46-47.9c-1.4-5.2-2-10.6-2-16.1c0-35.3,28.7-64,64-64
	c23.4,0,44.5,12.7,55.8,32.8c-17.1,10-29.1,27.6-31.4,48.2c-14,3.4-24.4,16-24.4,31h16c0-8.8,7.2-16,16-16s16,7.2,16,16h16
	c0-14.7-10-26.9-23.5-30.7C163.8,251,183.8,233,208,233c26.5,0,48,21.5,48,48c0,4.2-0.7,8.3-1.8,12.3c-13.1,6.6-22.2,20-22.2,35.7
	h16c0-13.2,10.8-24,24-24s24,10.8,24,24s-10.8,24-24,24H56C38.4,353,24,338.7,24,321L24,321z M216,369v24c0,13.2,10.8,24,24,24h64
	c4.4,0,8,3.6,8,8s-3.6,8-8,8h-80c-13.2,0-24,10.8-24,24s10.8,24,24,24h16c4.4,0,8,3.6,8,8v40h-32c-1.6,0-3.2,0.2-4.7,0.5
	c-9.1-22.5-24.8-37.9-40.1-52.8C149,455.1,128,434.6,128,393c0-8.1,1-16.1,2.5-24H216z M154.7,483L96,541.7L67.3,513l61-61
	C135.9,463.8,145.2,473.6,154.7,483z M59,527.4l62.6,62.6l-53,20.4l-30-30L59,527.4z M31.5,624.6c-3.5,1.3-7.5-1.4-7.5-5.1
	c0-0.7,0.1-1.3,0.4-2l8-20.8l19.9,19.9L31.5,624.6z M256,625c-11.8,0-22.4-6.3-28.2-16h56.4C278.4,618.7,267.8,625,256,625z
	 M296,593h-80c-4.4,0-8-3.6-8-8c0-4.4,3.6-8,8-8h80c4.4,0,8,3.6,8,8C304,589.4,300.4,593,296,593z M419.6,430.5
	c11.8,4.9,25.3,2.3,34.3-6.7l0.3-0.3l11.3,11.3l-0.3,0.3c-9,9-11.6,22.5-6.6,34.5c4.9,11.8,16.2,19.4,28.9,19.4h0.4v16h-0.4
	c-12.7,0-24.1,7.6-29,19.6c-4.9,11.8-2.3,25.3,6.7,34.3l0.3,0.3l-11.3,11.3l-0.3-0.3c-9-9-22.5-11.7-34.6-6.6
	c-11.8,4.9-19.4,16.2-19.4,28.9v0.4h-16v-0.4c0-12.7-7.6-24.1-19.6-29.1c-11.8-4.9-25.3-2.3-34.3,6.7l-0.3,0.3l-10.8-10.8
	c0.6-2.2,1.1-4.4,1.1-6.7c0-5.7-2.1-10.8-5.4-15c5-13.4,12.8-24.2,21.9-34.1c3.4,27.6,27,49,55.5,49c30.9,0,56-25.1,56-56
	s-25.1-56-56-56c-0.8,0-1.5,0.1-2.3,0.1c5.4-11.2,9.1-24.3,10.1-40.1h0.2v0.4C400,414.2,407.6,425.5,419.6,430.5L419.6,430.5z"/>
</svg>
