<?xml version="1.0" encoding="utf-8"?>
<!-- Generator: Adobe Illustrator 16.0.0, SVG Export Plug-In . SVG Version: 6.00 Build 0)  -->
<!DOCTYPE svg PUBLIC "-//W3C//DTD SVG 1.1//EN" "http://www.w3.org/Graphics/SVG/1.1/DTD/svg11.dtd">
<svg version="1.1" id="Capa_1" xmlns="http://www.w3.org/2000/svg" xmlns:xlink="http://www.w3.org/1999/xlink" x="0px" y="0px"
	 width="220.994px" height="214.49px" viewBox="15.994 0 220.994 214.49" enable-background="new 15.994 0 220.994 214.49"
	 xml:space="preserve">
<g>
	<path fill="#FFFFFF" d="M54.375,150.168l-0.077-0.102c0.465,0.978,0.816,2.017,1.396,2.922
		c17.792,28.299,50.877,43.558,83.713,38.079c28.458-4.765,49.261-20.315,62.233-45.983c8.657-17.093,10.588-35.269,6.667-54.019
		c-9.494-45.334-55.43-76.041-103.378-63.425c-34.6,9.111-59.067,39.5-61.777,73.783c-1.28,16.172,1.781,31.4,9.215,45.768
		C52.914,148.245,53.709,149.171,54.375,150.168 M228.768,108.676c-0.167,56.687-46.102,102.394-102.922,102.036
		c-56.158-0.367-101.708-45.579-101.572-102.459c0.127-58.13,47.633-102.884,103.8-102.029
		C183.503,7.075,228.754,52.116,228.768,108.676"/>
	<path fill="#FFFFFF" d="M126.604,25.865c-5.944,8.813-50.409,85.495-50.932,87.791l0.586,0.154
		c9.752,0.017,19.496-0.008,29.253,0.08c1.657,0.019,2.256-0.928,2.93-2.093c11.004-18.931,21.981-37.875,33.03-56.775
		c0.885-1.502,0.903-2.593,0-4.09c-4.579-7.668-9.05-15.417-13.574-23.121C127.563,27.229,127.159,26.678,126.604,25.865
		l72.247,123.821c-1.221,0.06-1.889,0.124-2.562,0.124c-9.353,0.008-18.708-0.044-28.058,0.045
		c-1.846,0.017-2.862-0.604-3.789-2.198c-10.433-18.223-20.928-36.403-31.432-54.593c-0.74-1.271-1.205-2.32-0.311-3.849
		c4.876-8.318,9.622-16.715,14.416-25.087c0.246-0.404,0.612-0.744,1.056-1.284c16.889,28.943,33.672,57.706,50.679,86.841"/>
	<path fill="#FFFFFF" d="M54.375,150.165c0.213-0.646,0.325-1.367,0.657-1.94c4.854-8.23,9.743-16.439,14.629-24.657l0.613-0.752
		H139.9c5.127,8.745,10.304,17.564,15.748,26.85c-1.474,0.061-2.516,0.146-3.541,0.146c-31.425,0.007-62.823,0.001-94.23,0.018
		c-1.202,0-2.394,0.157-3.594,0.232L54.375,150.165z"/>
</g>
</svg>
