<?xml version="1.0" encoding="utf-8"?>
<!-- Generator: Adobe Illustrator 25.0.0, SVG Export Plug-In . SVG Version: 6.00 Build 0)  -->
<svg version="1.1" id="Capa_1" xmlns="http://www.w3.org/2000/svg" xmlns:xlink="http://www.w3.org/1999/xlink" x="0px" y="0px"
	 viewBox="0 0 512 512" style="enable-background:new 0 0 512 512;" xml:space="preserve">
<style type="text/css">
	.st0{fill:url(#SVGID_1_);}
	.st1{fill:url(#SVGID_2_);}
	.st2{fill:url(#SVGID_3_);}
	.st3{fill:url(#SVGID_4_);}
	.st4{fill:url(#SVGID_5_);}
	.st5{fill:url(#SVGID_6_);}
	.st6{fill:url(#SVGID_7_);}
	.st7{fill:url(#SVGID_8_);}
</style>
<g id="media-monitor-screen-Digital_Marketing">
	
		<linearGradient id="SVGID_1_" gradientUnits="userSpaceOnUse" x1="-243.7573" y1="1064.4071" x2="-198.0721" y2="1117.7059" gradientTransform="matrix(8 0 0 -8 1981 9033)">
		<stop  offset="0" style="stop-color:#FF9B00"/>
		<stop  offset="0.2146" style="stop-color:#FF9500"/>
		<stop  offset="0.5087" style="stop-color:#FF8300"/>
		<stop  offset="0.8473" style="stop-color:#FF6600"/>
		<stop  offset="1" style="stop-color:#FF5700"/>
	</linearGradient>
	<path class="st0" d="M437.4,145.8H424V139h6.7c11.1,0,20.2-9,20.2-20.2s-9-20.2-20.2-20.2l0,0H424V65.1c0-2.1-1-4.1-2.8-5.4
		c-1.7-1.3-3.9-1.7-5.9-1.1l-86.4,26.6h-46c-3.7,0-6.7,3-6.7,6.7v6.7h-13.4c-3.7,0-6.7,3-6.7,6.7v26.9c0,3.7,3,6.7,6.7,6.7h13.4v6.7
		h-40.3V85.3c0-3.7-3-6.7-6.7-6.7H94.7c-3.7,0-6.7,3-6.7,6.7v60.5H74.6c-11.1,0-20.1,9-20.2,20.2v215c0,11.1,9,20.1,20.2,20.2h154.6
		v20.2h-40.3c-3.7,0-6.7,3-6.7,6.7v26.9c0,3.7,3,6.7,6.7,6.7h134.4c3.7,0,6.7-3,6.7-6.7V428c0-3.7-3-6.7-6.7-6.7h-40.3v-20.2h154.6
		c11.1,0,20.1-9,20.2-20.2v-215C457.6,154.8,448.6,145.8,437.4,145.8z M424,112.2h6.7c3.7,0,6.7,3,6.7,6.7c0,3.7-3,6.7-6.7,6.7H424
		V112.2z M336.6,97l73.9-22.8v89.4l-73.9-22.8V97z M289.6,98.7h33.6V139h-33.6V98.7z M308.8,152.5l-4.8,33.6h-7.6v-33.6H308.8z
		 M269.4,125.6v-13.4h6.7v13.4H269.4z M101.4,92h121v94.1h-121V92z M316.5,434.7v13.4h-121v-13.4H316.5z M242.6,421.3v-20.2h26.9
		v20.2H242.6z M444.2,380.9c0,3.7-3,6.7-6.7,6.7H74.6c-3.7,0-6.7-3-6.7-6.7v-6.7h376.3V380.9z M444.2,360.8H67.8V165.9
		c0-3.7,3-6.7,6.7-6.7H88v33.6c0,3.7,3,6.7,6.7,6.7h134.4c3.7,0,6.7-3,6.7-6.7v-33.6h47v33.6c0,3.7,3,6.7,6.7,6.7h20.2
		c3.3,0,6.2-2.5,6.7-5.8l5.9-41.3h6.6l86.4,26.6c0.6,0.2,1.3,0.3,1.9,0.3c3.7-0.1,6.7-3,6.7-6.7v-13.4h13.4c3.7,0,6.7,3,6.7,6.7
		L444.2,360.8z"/>
	
		<linearGradient id="SVGID_2_" gradientUnits="userSpaceOnUse" x1="-247.61" y1="1067.7096" x2="-201.9256" y2="1121.0093" gradientTransform="matrix(8 0 0 -8 1981 9033)">
		<stop  offset="0" style="stop-color:#FF9B00"/>
		<stop  offset="0.2146" style="stop-color:#FF9500"/>
		<stop  offset="0.5087" style="stop-color:#FF8300"/>
		<stop  offset="0.8473" style="stop-color:#FF6600"/>
		<stop  offset="1" style="stop-color:#FF5700"/>
	</linearGradient>
	<path class="st1" d="M88,347.3h174.7c3.7,0,6.7-3,6.7-6.7V233.1c0-3.7-3-6.7-6.7-6.7H88c-3.7,0-6.7,3-6.7,6.7v107.5
		C81.3,344.3,84.3,347.3,88,347.3z M94.7,333.9v-88.8l77.1,47.5c2.2,1.3,4.9,1.3,7,0l77.1-47.5v88.8H94.7z M111.7,239.8H239
		L175.4,279L111.7,239.8z"/>
	
		<linearGradient id="SVGID_3_" gradientUnits="userSpaceOnUse" x1="-235.3663" y1="1057.2147" x2="-189.6811" y2="1110.5144" gradientTransform="matrix(8 0 0 -8 1981 9033)">
		<stop  offset="0" style="stop-color:#FF9B00"/>
		<stop  offset="0.2146" style="stop-color:#FF9500"/>
		<stop  offset="0.5087" style="stop-color:#FF8300"/>
		<stop  offset="0.8473" style="stop-color:#FF6600"/>
		<stop  offset="1" style="stop-color:#FF5700"/>
	</linearGradient>
	<path class="st2" d="M289.6,307H303v20.2c0,3.7,3,6.7,6.7,6.7H424c3.7,0,6.7-3,6.7-6.7v-80.6c0-3.7-3-6.7-6.7-6.7h-6.7v-20.2
		c0-3.7-3-6.7-6.7-6.7h-121c-3.7,0-6.7,3-6.7,6.7v80.6C282.9,304,285.9,307,289.6,307z M417.3,320.5H316.5v-67.2h100.8V320.5z
		 M296.3,226.4h107.5v13.4h-94.1c-3.7,0-6.7,3-6.7,6.7v47h-6.7V226.4z"/>
	
		<linearGradient id="SVGID_4_" gradientUnits="userSpaceOnUse" x1="-236.819" y1="1058.46" x2="-191.1337" y2="1111.7596" gradientTransform="matrix(8 0 0 -8 1981 9033)">
		<stop  offset="0" style="stop-color:#FF9B00"/>
		<stop  offset="0.2146" style="stop-color:#FF9500"/>
		<stop  offset="0.5087" style="stop-color:#FF8300"/>
		<stop  offset="0.8473" style="stop-color:#FF6600"/>
		<stop  offset="1" style="stop-color:#FF5700"/>
	</linearGradient>
	<path class="st3" d="M329.9,266.7h13.4v13.4h-13.4V266.7z"/>
	
		<linearGradient id="SVGID_5_" gradientUnits="userSpaceOnUse" x1="-233.6715" y1="1055.7627" x2="-187.9863" y2="1109.0615" gradientTransform="matrix(8 0 0 -8 1981 9033)">
		<stop  offset="0" style="stop-color:#FF9B00"/>
		<stop  offset="0.2146" style="stop-color:#FF9500"/>
		<stop  offset="0.5087" style="stop-color:#FF8300"/>
		<stop  offset="0.8473" style="stop-color:#FF6600"/>
		<stop  offset="1" style="stop-color:#FF5700"/>
	</linearGradient>
	<path class="st4" d="M356.8,266.7h47v13.4h-47V266.7z"/>
	
		<linearGradient id="SVGID_6_" gradientUnits="userSpaceOnUse" x1="-234.6741" y1="1056.6217" x2="-188.9897" y2="1109.9214" gradientTransform="matrix(8 0 0 -8 1981 9033)">
		<stop  offset="0" style="stop-color:#FF9B00"/>
		<stop  offset="0.2146" style="stop-color:#FF9500"/>
		<stop  offset="0.5087" style="stop-color:#FF8300"/>
		<stop  offset="0.8473" style="stop-color:#FF6600"/>
		<stop  offset="1" style="stop-color:#FF5700"/>
	</linearGradient>
	<path class="st5" d="M329.9,293.6h26.9V307h-26.9V293.6z"/>
	
		<linearGradient id="SVGID_7_" gradientUnits="userSpaceOnUse" x1="-231.527" y1="1053.924" x2="-185.8418" y2="1107.2236" gradientTransform="matrix(8 0 0 -8 1981 9033)">
		<stop  offset="0" style="stop-color:#FF9B00"/>
		<stop  offset="0.2146" style="stop-color:#FF9500"/>
		<stop  offset="0.5087" style="stop-color:#FF8300"/>
		<stop  offset="0.8473" style="stop-color:#FF6600"/>
		<stop  offset="1" style="stop-color:#FF5700"/>
	</linearGradient>
	<path class="st6" d="M370.2,293.6h33.6V307h-33.6V293.6z"/>
	
		<linearGradient id="SVGID_8_" gradientUnits="userSpaceOnUse" x1="-257.8483" y1="1076.4847" x2="-212.1631" y2="1129.7844" gradientTransform="matrix(8 0 0 -8 1981 9033)">
		<stop  offset="0" style="stop-color:#FF9B00"/>
		<stop  offset="0.2146" style="stop-color:#FF9500"/>
		<stop  offset="0.5087" style="stop-color:#FF8300"/>
		<stop  offset="0.8473" style="stop-color:#FF6600"/>
		<stop  offset="1" style="stop-color:#FF5700"/>
	</linearGradient>
	<path class="st7" d="M144.9,164.9c2,1.2,4.5,1.3,6.5,0.3l40.3-20.2c3.3-1.7,4.7-5.7,3-9c-0.7-1.3-1.7-2.4-3-3l-40.3-20.2
		c-3.3-1.7-7.4-0.3-9,3c-0.5,0.9-0.7,2-0.7,3v40.3C141.8,161.5,143,163.7,144.9,164.9z M155.2,129.7l18.6,9.3l-18.6,9.3V129.7z"/>
</g>
</svg>
