<?xml version="1.0" encoding="utf-8"?>
<!-- Generator: Adobe Illustrator 25.0.0, SVG Export Plug-In . SVG Version: 6.00 Build 0)  -->
<svg version="1.1" id="_x33_0" xmlns="http://www.w3.org/2000/svg" xmlns:xlink="http://www.w3.org/1999/xlink" x="0px" y="0px"
	 viewBox="0 0 512 512" style="enable-background:new 0 0 512 512;" xml:space="preserve">
<style type="text/css">
	.st0{fill:url(#SVGID_1_);}
</style>
<linearGradient id="SVGID_1_" gradientUnits="userSpaceOnUse" x1="-215.625" y1="1072.125" x2="-215.625" y2="1122.125" gradientTransform="matrix(8 0 0 -8 1981 9033)">
	<stop  offset="0" style="stop-color:#FF9B00"/>
	<stop  offset="0.2146" style="stop-color:#FF9500"/>
	<stop  offset="0.5087" style="stop-color:#FF8300"/>
	<stop  offset="0.8473" style="stop-color:#FF6600"/>
	<stop  offset="1" style="stop-color:#FF5700"/>
</linearGradient>
<path class="st0" d="M223.7,136v-1c0-11.1-4.3-21.4-12.1-29.3c-7.1-7.1-16.5-11-26.6-11c-9.7,0-18.8,3.6-25.8,10.3
	c-7-6.6-16.1-10.3-25.8-10.3c-10,0-19.5,3.9-26.6,11c-7.8,7.8-12.1,18.2-12.1,29.3v1c0,12.5,5.4,24.4,14.7,32.7l49.8,44.3l49.8-44.3
	C218.4,160.4,223.7,148.5,223.7,136L223.7,136z M159.2,195.8L118,159.1c-6.6-5.9-10.4-14.3-10.4-23.1v-1c0-7.6,3-14.8,8.3-20.1
	c4.7-4.7,10.9-7.2,17.5-7.2c6.6,0,12.8,2.6,17.5,7.2l8.3,8.3l8.3-8.3c9.3-9.3,25.6-9.3,34.9,0c5.4,5.4,8.3,12.5,8.3,20.1v1
	c0,8.8-3.8,17.2-10.4,23.1L159.2,195.8z M436.6,107.6H262.5V75.4c0-10.7-8.7-19.4-19.4-19.4H75.4C64.7,56,56,64.7,56,75.4v141.9
	c0,10.7,8.7,19.4,19.4,19.4h55l10.8,12.9H88.3c-10.7,0-19.4,8.7-19.4,19.4v129c0,10.7,8.7,19.4,19.4,19.4h67.9l27.7,33.2
	c2.9,3.5,7.2,5.5,11.7,5.5c8.4,0,15.2-6.8,15.2-15.2v-23.5h71c10.7,0,19.4-8.7,19.4-19.4V288.3h12.9v23.5c0,8.4,6.8,15.2,15.2,15.2
	c4.5,0,8.8-2,11.7-5.5l27.7-33.2h67.9c10.7,0,19.4-8.7,19.4-19.4V127C456,116.3,447.3,107.6,436.6,107.6L436.6,107.6z M75.4,223.7
	c-3.6,0-6.5-2.9-6.5-6.5V75.4c0-3.6,2.9-6.5,6.5-6.5h167.7c3.6,0,6.5,2.9,6.5,6.5v141.9c0,3.6-2.9,6.5-6.5,6.5h-71v36.4
	c0,2-2.9,3-4.1,1.5l-31.6-37.9H75.4z M223.7,249.5H185v-12.9h38.7V249.5z M288.3,397.9c0,3.6-2.9,6.5-6.5,6.5h-83.9v36.4
	c0,2-2.9,3-4.1,1.5l-31.6-37.9h-74c-3.6,0-6.5-2.9-6.5-6.5v-129c0-3.6,2.9-6.5,6.5-6.5h63.6l6.2,7.4c2.9,3.5,7.2,5.5,11.7,5.5
	c7.6,0,13.9-5.6,15-12.9h38.9v6.5c0,10.7,8.7,19.4,19.4,19.4h45.2V397.9z M443.1,268.9c0,3.6-2.9,6.5-6.5,6.5h-74l-31.6,37.9
	c-1.3,1.5-4.1,0.5-4.1-1.5v-36.4h-83.9c-3.6,0-6.5-2.9-6.5-6.5v-32.3h6.5c10.7,0,19.4-8.7,19.4-19.4v-96.8h174.2
	c3.6,0,6.5,2.9,6.5,6.5V268.9z M210.8,327c0,3.8,0.9,7.4,2.4,10.7c-2.8-2.5-5.9-4.6-9.2-6.2c4.2-4.6,6.8-10.7,6.8-17.4
	c0-14.2-11.6-25.8-25.8-25.8c-14.2,0-25.8,11.6-25.8,25.8c0,6.7,2.6,12.8,6.8,17.4c-3.3,1.7-6.4,3.8-9.2,6.2
	c1.5-3.3,2.4-6.9,2.4-10.7c0-14.2-11.6-25.8-25.8-25.8s-25.8,11.6-25.8,25.8c0,6.9,2.7,13.1,7.1,17.7c-11.9,6.6-20,19.3-20,33.9
	v12.9h12.9v-12.9c0-14.2,11.6-25.8,25.8-25.8c4.1,0,8,1,11.5,2.7c-1,2.9-1.8,6-2.1,9.3l-2.9,26l12.8,1.4l2.9-26
	c1.7-15,14.3-26.3,29.4-26.3c15.1,0,27.7,11.3,29.4,26.3l2.9,26l12.8-1.4l-2.9-26c-0.4-3.2-1.1-6.3-2.1-9.3
	c3.5-1.8,7.4-2.7,11.5-2.7c14.2,0,25.8,11.6,25.8,25.8v12.9h12.9v-12.9c0-14.6-8.1-27.3-20-33.9c4.4-4.6,7.1-10.8,7.1-17.7
	c0-14.2-11.6-25.8-25.8-25.8C222.4,301.2,210.8,312.7,210.8,327L210.8,327z M120.5,327c0-7.1,5.8-12.9,12.9-12.9
	c7.1,0,12.9,5.8,12.9,12.9c0,7.1-5.8,12.9-12.9,12.9C126.3,339.9,120.5,334.1,120.5,327z M172.1,314.1c0-7.1,5.8-12.9,12.9-12.9
	s12.9,5.8,12.9,12.9c0,7.1-5.8,12.9-12.9,12.9S172.1,321.2,172.1,314.1z M249.5,327c0,7.1-5.8,12.9-12.9,12.9s-12.9-5.8-12.9-12.9
	c0-7.1,5.8-12.9,12.9-12.9S249.5,319.9,249.5,327z M391.5,172.1h-11.7l1.6-9.3c1.2-7.3-0.8-14.8-5.6-20.5
	c-4.8-5.7-11.8-8.9-19.3-8.9c-8.9,0-16.6,6-18.8,14.7c-2.3,9.4-7.2,17.9-14,24.7l-1.9,1.9c-2.1-1.6-4.8-2.6-7.7-2.6h-25.8
	c-7.1,0-12.9,5.8-12.9,12.9v64.5c0,7.1,5.8,12.9,12.9,12.9h25.8c5.6,0,10.4-3.6,12.1-8.7c11.4,5.7,24,8.7,36.9,8.7h28.4
	c14.2,0,25.8-11.6,25.8-25.8v-38.7C417.3,183.7,405.7,172.1,391.5,172.1L391.5,172.1z M288.3,249.5V185h25.8l0,64.5H288.3z
	 M404.4,236.6c0,7.1-5.8,12.9-12.9,12.9h-28.4c-12.8,0-25.2-3.5-36.2-10.1v-51.8l5.8-5.8c8.5-8.5,14.5-19.1,17.4-30.7
	c0.7-2.9,3.3-4.9,6.3-4.9c3.6,0,7.1,1.6,9.4,4.4c2.3,2.8,3.4,6.4,2.8,10l-4.1,24.3h27c7.1,0,12.9,5.8,12.9,12.9V236.6z"/>
</svg>
