<?xml version="1.0" encoding="utf-8"?>
<!-- Generator: Adobe Illustrator 25.0.0, SVG Export Plug-In . SVG Version: 6.00 Build 0)  -->
<svg version="1.1" id="Layer_5" xmlns="http://www.w3.org/2000/svg" xmlns:xlink="http://www.w3.org/1999/xlink" x="0px" y="0px"
	 viewBox="0 0 512 512" style="enable-background:new 0 0 512 512;" xml:space="preserve">
<style type="text/css">
	.st0{fill:url(#SVGID_1_);}
</style>
<linearGradient id="SVGID_1_" gradientUnits="userSpaceOnUse" x1="-463.25" y1="231.9885" x2="-463.25" y2="183.4885" gradientTransform="matrix(8 0 0 8 3962 -1406)">
	<stop  offset="0" style="stop-color:#FF9B00"/>
	<stop  offset="1" style="stop-color:#FF5700"/>
</linearGradient>
<path class="st0" d="M162.1,337.3v12.5h-12.5v-12.5H162.1z M124.6,349.8h12.5v-12.5h-12.5V349.8z M99.5,349.8h12.5v-12.5H99.5V349.8
	z M420.8,196.1l29.2,58.3v151.7c0,24.2-19.6,43.8-43.8,43.8c-24.2,0-43.8-19.6-43.8-43.8v-31.3h-81.1c1,10,6.3,19,14.4,25h29.2
	c10.3,0,18.8,8.4,18.8,18.8v12.5c0,10.3-8.4,18.8-18.8,18.8H137.1c-10.3,0-18.8-8.4-18.8-18.8v-12.5c0-10.3,8.4-18.8,18.8-18.8h29.2
	c8.1-6,13.3-15,14.4-25H93.3c-17.3,0-31.3-14-31.3-31.3V155.8c0-17.3,14-31.3,31.3-31.3h26.2c2.6-7.3,9.5-12.5,17.6-12.5V93.2
	c0-17.3,14-31.3,31.3-31.3s31.3,14,31.3,31.3V112c8.1,0,15,5.2,17.6,12.5h151.4c17.3,0,31.3,14,31.3,31.3v32.7
	c2-0.8,4.1-1.4,6.3-1.4C412.5,187.1,418.1,190.5,420.8,196.1L420.8,196.1z M402.8,201.7l-24,48h54.8l-23.9-48
	C408.3,199.1,404.1,199.1,402.8,201.7L402.8,201.7z M187.2,149.5h-37.5v79.9l15.3,30.7c1.3,2.7,5.6,2.7,6.9,0l11.4-22.9h-21.1v-12.5
	h25v-12.5h-12.5v-12.5h12.5v-12.5h-25v-12.5h25V149.5z M130.8,274.7c-3.4,0-6.3,2.8-6.3,6.3s2.8,6.3,6.3,6.3h112.6
	c3.4,0,6.3-2.8,6.3-6.3s-2.8-6.3-6.3-6.3H130.8z M137.1,232.4V162H99.5v150.2h262.8v-56.3v-1.5V162H199.7v70.3l-14.9,29.8h58.7
	c10.3,0,18.8,8.4,18.8,18.8c0,10.3-8.4,18.8-18.8,18.8H130.8c-10.3,0-18.8-8.4-18.8-18.8c0-10.3,8.4-18.8,18.8-18.8H152L137.1,232.4
	z M399.9,349.8v-87.6h-25v87.6H399.9z M374.9,374.8h62.6v-12.5h-62.6V374.8z M437.5,349.8v-87.6h-25v87.6H437.5z M368.6,137H217.3
	c-2.6,7.3-9.5,12.5-17.6,12.5h162.7c6.9,0,12.5,5.6,12.5,12.5v67.4l12.5-25v-48.6C387.4,145.5,379,137,368.6,137z M149.6,112h37.5
	V93.2c0-10.3-8.4-18.8-18.8-18.8s-18.8,8.4-18.8,18.8V112z M130.8,130.7c0,3.4,2.8,6.3,6.3,6.3h62.6c3.4,0,6.3-2.8,6.3-6.3
	c0-3.4-2.8-6.3-6.3-6.3h-62.6C133.7,124.5,130.8,127.3,130.8,130.7z M324.8,412.4H137.1c-3.4,0-6.3,2.8-6.3,6.3v12.5
	c0,3.4,2.8,6.3,6.3,6.3h187.7c3.4,0,6.3-2.8,6.3-6.3v-12.5C331.1,415.2,328.3,412.4,324.8,412.4z M268.8,374.8h-75.6
	c-0.7,9.2-4,17.8-9.3,25h94.3C272.7,392.6,269.5,384,268.8,374.8z M362.4,362.3v-37.5H99.5c-6.9,0-12.5-5.6-12.5-12.5V162
	c0-6.9,5.6-12.5,12.5-12.5h37.5c-8.1,0-15-5.2-17.6-12.5H93.3c-10.3,0-18.8,8.4-18.8,18.8v187.7c0,10.3,8.4,18.8,18.8,18.8H362.4z
	 M437.5,406.1v-18.8h-62.6v18.8c0,17.3,14,31.3,31.3,31.3S437.5,423.4,437.5,406.1z M349.9,249.7H249.7v-75.1h100.1V249.7z
	 M337.4,187.1h-75.1v50.1h75.1V187.1z M277.6,230.3l22.2-11.1l22.2,11.1l5.6-11.2l-13.8-6.9l13.8-6.9l-5.6-11.2l-22.2,11L277.6,194
	l-5.6,11.2l13.8,6.9L272,219L277.6,230.3z M274.8,274.7h75.1v-12.5h-75.1V274.7z M337.4,299.7h12.5v-12.5h-12.5V299.7z M274.8,299.7
	h50.1v-12.5h-50.1V299.7z"/>
</svg>
